<svg xmlns="http://www.w3.org/2000/svg" viewBox="0 0 1200 675" role="img" aria-labelledby="t d" font-family="Inter, -apple-system, BlinkMacSystemFont, 'Segoe UI', Roboto, sans-serif">
<title id="t">Three NFC tag placements on a wine bottle: under capsule, behind back label, cork top</title>
<desc id="d">A wine bottle with three numbered placement options for an NFC tag. Option 1, under the aluminum capsule — the default for wine, totally invisible. Option 2, behind the back label — for spirits with longer-form back labels. Option 3, on the cork top — ultra-premium only, a flex, not a flaw. A physics note underneath says the aluminum capsule costs 6-10 dB of signal yet reads stay reliable, so field-test on real bottles. Caption: most drinkers never notice the tag.</desc>
<defs>
<radialGradient id="bg" cx="50%" cy="16%" r="94%"><stop offset="0%" stop-color="#f8ead0"/><stop offset="100%" stop-color="#f4efe4"/></radialGradient>
</defs>
<rect width="1200" height="675" fill="url(#bg)"/>
<rect x="16" y="16" width="1168" height="643" rx="20" fill="#ffffff" stroke="#e6dfd2" stroke-width="2"/>
<text x="600" y="54" text-anchor="middle" font-size="21" font-weight="800" letter-spacing="0.5" fill="#6d5a3a">PLACEMENT IS A DESIGN DECISION, NOT A COMPROMISE</text>
<text x="600" y="98" text-anchor="middle" font-family="Lora, Georgia, serif" font-size="34" font-weight="700" fill="#291c0e">Three places to put an NFC tag on a bottle</text>

<path d="M 260 214 L 260 300 C 260 330 218 338 218 376 L 218 500 Q 218 520 238 520 L 322 520 Q 342 520 342 500 L 342 376 C 342 338 300 330 300 300 L 300 214 Z" fill="#1b4332" stroke="#c39a5f" stroke-width="2.5"/>
<rect x="252" y="170" width="56" height="46" rx="6" fill="#c39a5f"/>
<rect x="260" y="181" width="40" height="5" rx="2.5" fill="#a5824e"/>
<rect x="238" y="400" width="84" height="96" rx="6" fill="#f9f1e2" stroke="#e4c98f"/>
<rect x="250" y="416" width="60" height="5" rx="2.5" fill="#6d5a3a"/>
<rect x="250" y="429" width="44" height="4" rx="2" fill="#c39a5f"/>
<rect x="250" y="453" width="60" height="3" rx="1.5" fill="#e4c98f"/>
<rect x="250" y="462" width="60" height="3" rx="1.5" fill="#e4c98f"/>

<line x1="294" y1="232" x2="556" y2="200" stroke="#c39a5f" stroke-width="1.6" stroke-dasharray="3 8" stroke-linecap="round"/>
<line x1="294" y1="448" x2="556" y2="320" stroke="#3d6b6b" stroke-width="1.6" stroke-dasharray="3 8" stroke-linecap="round"/>
<line x1="294" y1="152" x2="556" y2="440" stroke="#2d6a4f" stroke-width="1.6" stroke-dasharray="3 8" stroke-linecap="round"/>

<circle cx="280" cy="232" r="16" fill="#ffffff" stroke="#c39a5f" stroke-width="2.5"/>
<text x="280" y="237" text-anchor="middle" font-size="15" font-weight="800" fill="#6d5a3a">1</text>
<circle cx="280" cy="448" r="16" fill="#ffffff" stroke="#3d6b6b" stroke-width="2.5"/>
<text x="280" y="453" text-anchor="middle" font-size="15" font-weight="800" fill="#2c5454">2</text>
<circle cx="280" cy="152" r="16" fill="#ffffff" stroke="#2d6a4f" stroke-width="2.5"/>
<text x="280" y="157" text-anchor="middle" font-size="15" font-weight="800" fill="#1b4332">3</text>

<rect x="560" y="150" width="576" height="100" rx="14" fill="#f9f1e2" stroke="#e4c98f" stroke-width="1.5"/>
<circle cx="604" cy="200" r="17" fill="#ffffff" stroke="#c39a5f" stroke-width="2.5"/>
<text x="604" y="206" text-anchor="middle" font-size="16" font-weight="800" fill="#6d5a3a">1</text>
<text x="640" y="192" font-size="17" font-weight="700" fill="#291c0e">Under the capsule</text>
<text x="640" y="218" font-size="13.5" fill="#4f4f4f">the default for wine — totally invisible</text>

<rect x="560" y="270" width="576" height="100" rx="14" fill="#eef5f5" stroke="#cfe0e0" stroke-width="1.5"/>
<circle cx="604" cy="320" r="17" fill="#ffffff" stroke="#3d6b6b" stroke-width="2.5"/>
<text x="604" y="326" text-anchor="middle" font-size="16" font-weight="800" fill="#2c5454">2</text>
<text x="640" y="312" font-size="17" font-weight="700" fill="#291c0e">Behind the back label</text>
<text x="640" y="338" font-size="13.5" fill="#4f4f4f">for spirits with longer-form back labels</text>

<rect x="560" y="390" width="576" height="100" rx="14" fill="#ecf4ef" stroke="#cfe0d6" stroke-width="1.5"/>
<circle cx="604" cy="440" r="17" fill="#ffffff" stroke="#2d6a4f" stroke-width="2.5"/>
<text x="604" y="446" text-anchor="middle" font-size="16" font-weight="800" fill="#1b4332">3</text>
<text x="640" y="432" font-size="17" font-weight="700" fill="#291c0e">On the cork top</text>
<text x="640" y="458" font-size="13.5" fill="#4f4f4f">ultra-premium only — a flex, not a flaw</text>

<rect x="64" y="530" width="1072" height="54" rx="12" fill="#eef5f5" stroke="#cfe0e0"/>
<text x="600" y="564" text-anchor="middle" font-size="14.5" fill="#234a4a">Physics note: the aluminum capsule costs 6-10 dB of signal — reads stay reliable. Field-test on real bottles.</text>
<text x="600" y="624" text-anchor="middle" font-size="13.5" fill="#5c5c5c">Most drinkers never notice the tag.</text>
</svg>
